<svg width="44" height="40" viewBox="0 0 63 59" fill="none" xmlns="http://www.w3.org/2000/svg">
<path d="M0 52.2241C0 54.0263 0.600579 55.5543 1.80171 56.808C3.02954 58.0355 4.7378 58.6493 6.92653 58.6493C9.08857 58.6493 10.7835 58.0355 12.0113 56.808C13.2658 55.5804 13.8931 54.0524 13.8931 52.2241C13.8931 50.3958 13.2792 48.8549 12.0514 47.6012C10.8235 46.3213 9.11526 45.6814 6.92653 45.6814C4.68441 45.6814 2.96279 46.3213 1.76166 47.6012C0.587217 48.881 0 50.422 0 52.2241Z" fill="white"/>
<path d="M62.8331 36.122V22.6057C62.8331 18.949 62.3927 15.7234 61.5118 12.9287C60.631 10.1079 59.3898 7.73111 57.7883 5.79833C56.1334 3.89167 54.1315 2.45515 51.7827 1.48876C49.4605 0.496255 46.818 0 43.8552 0C40.9191 0 38.2766 0.496255 35.9277 1.48876C33.6055 2.45515 31.6303 3.89167 30.0021 5.79833C28.3739 7.73111 27.1194 10.1079 26.2386 12.9287C25.3844 15.7234 24.9573 18.949 24.9573 22.6057V36.122C24.9573 39.7786 25.3844 43.0173 26.2386 45.8382C27.1194 48.6328 28.3873 50.9705 30.0421 52.851C31.6703 54.7838 33.6589 56.2464 36.0078 57.2389C38.3567 58.2053 40.9991 58.6885 43.9352 58.6885C46.898 58.6885 49.5405 58.2053 51.8627 57.2389C54.2116 56.2464 56.1868 54.7838 57.7883 52.851C59.4165 50.9705 60.6577 48.6328 61.5118 45.8382C62.3927 43.0173 62.8331 39.7786 62.8331 36.122ZM34.5664 32.7919C34.5664 32.0345 34.5664 31.3946 34.5664 30.8722C34.5664 30.3498 34.5664 29.5924 34.5664 28.5999V20.921C34.5664 18.5703 34.7799 16.5331 35.207 14.8092C35.6341 13.0593 36.2881 11.6358 37.1689 10.5389C37.9163 9.57247 38.8505 8.84115 39.9715 8.34489C41.0926 7.84864 42.3871 7.60051 43.8552 7.60051C45.2164 7.60051 46.4309 7.80946 47.4986 8.22736C48.593 8.64525 49.5139 9.27211 50.2612 10.1079C51.1154 11.0482 51.7693 12.2627 52.2231 13.7514C52.7035 15.2402 52.9971 17.0032 53.1039 19.0405L34.5664 32.7919ZM53.184 37.6891C53.184 40.0921 52.9571 42.1815 52.5033 43.9576C52.0763 45.7337 51.4223 47.1702 50.5415 48.2672C49.7674 49.2074 48.8332 49.9257 47.7388 50.422C46.6445 50.8921 45.3766 51.1272 43.9352 51.1272C42.4672 51.1272 41.1726 50.879 40.0516 50.3828C38.9572 49.8865 38.0364 49.1422 37.289 48.1497C36.5416 47.2355 35.941 46.0863 35.4873 44.702C35.0602 43.3177 34.7799 41.7245 34.6465 39.9223L53.184 26.2492C53.184 27.0066 53.184 27.738 53.184 28.4432C53.184 29.1484 53.184 29.8274 53.184 30.4804V37.6891Z" fill="white"/>
</svg>
